<svg width="48" height="48" viewBox="0 0 48 48" fill="none" xmlns="http://www.w3.org/2000/svg">
<g clip-path="url(#clip0_1_22784)">
<path d="M19.5217 15.7941V32.2056L20.872 32.7919L31.4642 24.5862V23.4135L20.872 15.2078L19.5217 15.7941ZM21.0145 17.3293L29.5094 23.9998L21.0145 30.6704V17.3293Z" fill="#FFF57A" stroke="#FFF57A" stroke-width="0.621508"/>
<path d="M24.002 0.128906C17.6224 0.128906 11.6243 2.61301 7.11377 7.12243C2.60173 11.6296 0.116943 17.6243 0.116943 24.0001C0.116943 30.376 2.60173 36.3707 7.11377 40.8786C11.6243 45.388 17.6224 47.8714 24.002 47.8714C30.3815 47.8714 36.3797 45.3873 40.8909 40.8778C45.4022 36.3707 47.887 30.376 47.887 24.0001C47.887 17.6243 45.4022 11.6296 40.8902 7.12168C36.3797 2.61226 30.3815 0.128906 24.002 0.128906ZM39.8355 39.8238C35.6056 44.0512 29.9829 46.3794 24.002 46.3794C18.021 46.3794 12.3983 44.0512 8.16919 39.823C3.9393 35.5971 1.60976 29.9776 1.60976 24.0001C1.60976 18.0226 3.9393 12.4032 8.16919 8.17649C12.3983 3.94905 18.021 1.62086 24.002 1.62086C29.9829 1.62086 35.6056 3.94979 39.8355 8.17724C44.0654 12.4032 46.3942 18.0226 46.3942 24.0001C46.3942 29.9776 44.0654 35.5971 39.8355 39.8238Z" fill="#FFF57A" stroke="#FFF57A" stroke-width="0.621508"/>
</g>
<defs>
<clipPath id="clip0_1_22784">
<rect width="47.7701" height="47.7425" fill="white" transform="translate(0.117188 0.129028)"/>
</clipPath>
</defs>
</svg>
